<?xml version="1.0" standalone="no"?>
<!DOCTYPE svg PUBLIC "-//W3C//DTD SVG 20010904//EN"
 "http://www.w3.org/TR/2001/REC-SVG-20010904/DTD/svg10.dtd">
<svg version="1.0" xmlns="http://www.w3.org/2000/svg"
 width="1272.000000pt" height="1280.000000pt" viewBox="0 0 1272.000000 1280.000000"
 preserveAspectRatio="xMidYMid meet">
<metadata>
Created by potrace 1.15, written by Peter Selinger 2001-2017
</metadata>
<g transform="translate(0.000000,1280.000000) scale(0.100000,-0.100000)"
fill="#000000" stroke="none">
<path d="M9552 12782 c-95 -34 -160 -104 -293 -316 -200 -319 -351 -701 -428
-1084 -53 -261 -66 -403 -65 -747 0 -318 8 -426 53 -705 10 -63 18 -116 16
-118 -1 -1 -44 15 -94 38 -208 91 -458 162 -716 202 -122 19 -182 22 -465 23
-330 0 -373 -3 -635 -46 -627 -102 -1365 -396 -1970 -782 -596 -381 -1168
-916 -1585 -1482 -794 -1079 -1113 -2321 -849 -3314 34 -127 97 -306 140 -395
16 -33 28 -61 26 -62 -1 -2 -36 1 -76 7 -233 29 -652 29 -911 -1 -689 -78
-1259 -306 -1573 -628 -97 -101 -122 -151 -122 -252 0 -89 25 -154 83 -214 34
-36 141 -96 170 -96 7 0 34 -11 60 -24 164 -84 374 -361 417 -548 7 -35 21
-137 30 -228 27 -287 53 -406 118 -535 118 -237 334 -401 624 -476 71 -18 177
-33 451 -64 206 -24 292 -60 382 -162 23 -27 113 -154 201 -283 182 -271 272
-388 331 -430 125 -91 295 -73 404 42 82 85 226 313 330 520 177 352 282 720
329 1151 29 264 16 757 -26 1029 -6 38 -9 71 -7 73 2 3 76 -20 165 -50 386
-130 656 -175 1052 -175 273 0 486 20 746 71 1349 264 2696 1205 3520 2459
428 653 680 1317 760 2002 21 184 21 541 0 713 -37 305 -110 566 -231 824 -30
63 -54 115 -54 116 0 0 57 -7 128 -17 451 -62 986 -43 1422 53 471 103 854
278 1120 511 100 88 135 132 167 207 26 65 29 127 8 198 -31 103 -110 179
-227 214 -37 12 -94 38 -125 59 -160 105 -343 365 -377 535 -8 39 -22 144 -31
235 -37 373 -97 537 -258 707 -116 122 -260 208 -433 258 -111 32 -165 41
-399 65 -221 23 -305 39 -368 71 -72 37 -157 137 -307 359 -154 228 -275 387
-329 433 -85 72 -200 94 -299 59z"/>
</g>
</svg>
